<?xml version="1.0" encoding="UTF-8"?>
<!DOCTYPE svg PUBLIC "-//W3C//DTD SVG 1.1//EN" "http://www.w3.org/Graphics/SVG/1.1/DTD/svg11.dtd">
<svg xmlns="http://www.w3.org/2000/svg" version="1.1" width="128px" height="128px" style="shape-rendering:geometricPrecision; text-rendering:geometricPrecision; image-rendering:optimizeQuality; fill-rule:evenodd; clip-rule:evenodd" xmlns:xlink="http://www.w3.org/1999/xlink">
<g><path style="opacity:0.831" fill="#fefffe" d="M 36.5,-0.5 C 54.5,-0.5 72.5,-0.5 90.5,-0.5C 92.1343,0.971672 93.6343,2.63834 95,4.5C 95.3891,15.1722 95.8891,25.8388 96.5,36.5C 95.7351,65.1594 95.2351,93.826 95,122.5C 93.6343,124.362 92.1343,126.028 90.5,127.5C 72.5,127.5 54.5,127.5 36.5,127.5C 34.8657,126.028 33.3657,124.362 32,122.5C 31.7937,95.6548 31.2937,68.8215 30.5,42C 31.279,29.5598 31.779,17.0598 32,4.5C 33.3657,2.63834 34.8657,0.971672 36.5,-0.5 Z M 41.5,3.5 C 43.1992,3.33982 44.8659,3.50649 46.5,4C 47.2567,5.51221 48.2567,6.84555 49.5,8C 58.8333,8.66667 68.1667,8.66667 77.5,8C 80.9041,2.5167 85.0707,2.0167 90,6.5C 90.6667,44.5 90.6667,82.5 90,120.5C 89.5,121 89,121.5 88.5,122C 72.9009,123.62 57.2342,123.953 41.5,123C 39.6711,122.727 38.1711,121.893 37,120.5C 36.3333,82.5 36.3333,44.5 37,6.5C 38.4087,5.21886 39.9087,4.21886 41.5,3.5 Z"/></g>
<g><path style="opacity:0.798" fill="#fefffe" d="M 64.5,55.5 C 67.2048,55.3802 67.8715,56.3802 66.5,58.5C 67.325,59.3857 68.325,59.719 69.5,59.5C 67.9444,62.4495 68.2777,65.1162 70.5,67.5C 70,68.5 69.5,69.5 69,70.5C 60.0754,73.9003 56.0754,70.9003 57,61.5C 58.6845,59.2993 60.6845,58.6327 63,59.5C 63.4101,58.0993 63.9101,56.766 64.5,55.5 Z"/></g>
</svg>
