<?xml version="1.0" encoding="UTF-8"?>
<!DOCTYPE svg PUBLIC "-//W3C//DTD SVG 1.1//EN" "http://www.w3.org/Graphics/SVG/1.1/DTD/svg11.dtd">
<svg xmlns="http://www.w3.org/2000/svg" version="1.1" width="128px" height="128px" style="shape-rendering:geometricPrecision; text-rendering:geometricPrecision; image-rendering:optimizeQuality; fill-rule:evenodd; clip-rule:evenodd" xmlns:xlink="http://www.w3.org/1999/xlink">
<g><path style="opacity:0.956" fill="#fefffe" d="M 127.5,39.5 C 127.5,61.5 127.5,83.5 127.5,105.5C 124.691,110.588 120.357,113.755 114.5,115C 80.5,115.667 46.5,115.667 12.5,115C 6.64278,113.755 2.30945,110.588 -0.5,105.5C -0.5,83.5 -0.5,61.5 -0.5,39.5C 1.31481,35.5212 4.31481,32.6878 8.5,31C 15.1154,29.9524 21.7821,29.1191 28.5,28.5C 31.7835,22.4204 36.1168,17.2537 41.5,13C 56.1667,11 70.8333,11 85.5,13C 90.8832,17.2537 95.2165,22.4204 98.5,28.5C 105.218,29.1191 111.885,29.9524 118.5,31C 122.685,32.6878 125.685,35.5212 127.5,39.5 Z M 60.5,33.5 C 85.4176,35.2493 97.5843,48.5826 97,73.5C 91.3556,94.1332 77.8556,103.3 56.5,101C 35.3819,93.8846 26.8819,79.3846 31,57.5C 36.2848,43.6985 46.1182,35.6985 60.5,33.5 Z M 102.5,43.5 C 105.85,43.335 109.183,43.5017 112.5,44C 114.64,49.2107 112.806,51.7107 107,51.5C 100.496,51.399 98.9958,48.7323 102.5,43.5 Z"/></g>
<g><path style="opacity:0.937" fill="#fefffe" d="M 57.5,48.5 C 72.4037,46.4136 81.0703,52.7469 83.5,67.5C 80.6849,83.4762 71.3515,89.6429 55.5,86C 45.378,80.3144 41.878,71.8144 45,60.5C 47.769,54.8947 51.9356,50.8947 57.5,48.5 Z"/></g>
</svg>
