<?xml version="1.0" encoding="UTF-8"?>
<!DOCTYPE svg PUBLIC "-//W3C//DTD SVG 1.1//EN" "http://www.w3.org/Graphics/SVG/1.1/DTD/svg11.dtd">
<svg xmlns="http://www.w3.org/2000/svg" version="1.1" width="128px" height="128px" style="shape-rendering:geometricPrecision; text-rendering:geometricPrecision; image-rendering:optimizeQuality; fill-rule:evenodd; clip-rule:evenodd" xmlns:xlink="http://www.w3.org/1999/xlink">
<g><path style="opacity:0.932" fill="#fefffe" d="M 38.5,-0.5 C 42.8333,-0.5 47.1667,-0.5 51.5,-0.5C 52.464,6.74629 52.7973,14.0796 52.5,21.5C 54.8333,21.5 57.1667,21.5 59.5,21.5C 59.2027,14.0796 59.536,6.74629 60.5,-0.5C 62.5,-0.5 64.5,-0.5 66.5,-0.5C 67.464,6.74629 67.7973,14.0796 67.5,21.5C 69.8333,21.5 72.1667,21.5 74.5,21.5C 74.2027,14.0796 74.536,6.74629 75.5,-0.5C 79.8333,-0.5 84.1667,-0.5 88.5,-0.5C 91.4752,5.50582 89.4752,8.17249 82.5,7.5C 82.5,12.1667 82.5,16.8333 82.5,21.5C 84.9892,21.2978 87.3225,21.7978 89.5,23C 94.3333,27.8333 99.1667,32.6667 104,37.5C 105.202,39.6775 105.702,42.0108 105.5,44.5C 110.167,44.5 114.833,44.5 119.5,44.5C 118.828,37.5248 121.494,35.5248 127.5,38.5C 127.5,42.8333 127.5,47.1667 127.5,51.5C 120.254,52.464 112.92,52.7973 105.5,52.5C 105.5,54.8333 105.5,57.1667 105.5,59.5C 112.92,59.2027 120.254,59.536 127.5,60.5C 127.5,62.5 127.5,64.5 127.5,66.5C 120.254,67.464 112.92,67.7973 105.5,67.5C 105.5,69.8333 105.5,72.1667 105.5,74.5C 112.92,74.2027 120.254,74.536 127.5,75.5C 127.5,79.8333 127.5,84.1667 127.5,88.5C 121.494,91.4752 118.828,89.4752 119.5,82.5C 114.833,82.5 110.167,82.5 105.5,82.5C 105.797,89.5581 105.464,96.5581 104.5,103.5C 103.975,104.192 103.308,104.692 102.5,105C 95.8417,105.5 89.175,105.666 82.5,105.5C 82.5,110.167 82.5,114.833 82.5,119.5C 89.4752,118.828 91.4752,121.494 88.5,127.5C 84.1667,127.5 79.8333,127.5 75.5,127.5C 74.536,120.254 74.2027,112.92 74.5,105.5C 72.1667,105.5 69.8333,105.5 67.5,105.5C 67.7973,112.92 67.464,120.254 66.5,127.5C 64.5,127.5 62.5,127.5 60.5,127.5C 59.536,120.254 59.2027,112.92 59.5,105.5C 57.1667,105.5 54.8333,105.5 52.5,105.5C 52.7973,112.92 52.464,120.254 51.5,127.5C 47.1667,127.5 42.8333,127.5 38.5,127.5C 35.5248,121.494 37.5248,118.828 44.5,119.5C 44.5,114.833 44.5,110.167 44.5,105.5C 42.0108,105.702 39.6775,105.202 37.5,104C 32.6667,99.1667 27.8333,94.3333 23,89.5C 21.7978,87.3225 21.2978,84.9892 21.5,82.5C 16.8333,82.5 12.1667,82.5 7.5,82.5C 8.17249,89.4752 5.50582,91.4752 -0.5,88.5C -0.5,84.1667 -0.5,79.8333 -0.5,75.5C 6.74629,74.536 14.0796,74.2027 21.5,74.5C 21.5,72.1667 21.5,69.8333 21.5,67.5C 14.0796,67.7973 6.74629,67.464 -0.5,66.5C -0.5,64.5 -0.5,62.5 -0.5,60.5C 6.74629,59.536 14.0796,59.2027 21.5,59.5C 21.5,57.1667 21.5,54.8333 21.5,52.5C 14.0796,52.7973 6.74629,52.464 -0.5,51.5C -0.5,47.1667 -0.5,42.8333 -0.5,38.5C 5.50582,35.5248 8.17249,37.5248 7.5,44.5C 12.1667,44.5 16.8333,44.5 21.5,44.5C 21.203,37.4419 21.5363,30.4419 22.5,23.5C 23.0253,22.8076 23.6919,22.3076 24.5,22C 31.1583,21.5004 37.825,21.3337 44.5,21.5C 44.5,16.8333 44.5,12.1667 44.5,7.5C 37.5248,8.17249 35.5248,5.50582 38.5,-0.5 Z M 40.5,37.5 C 53.8375,37.3334 67.1708,37.5001 80.5,38C 83.2953,39.7932 85.7953,41.9598 88,44.5C 89.1333,51.733 89.6333,59.0664 89.5,66.5C 89.3333,73.1667 89.1667,79.8333 89,86.5C 88.6924,87.3081 88.1924,87.9747 87.5,88.5C 73.8786,89.6484 60.2119,89.8151 46.5,89C 43.7047,87.2068 41.2047,85.0402 39,82.5C 37.3691,68.5941 37.0358,54.5941 38,40.5C 38.6979,39.3094 39.5313,38.3094 40.5,37.5 Z"/></g>
<g><path style="opacity:0.97" fill="#fefffe" d="M 44.5,44.5 C 56.1714,44.3335 67.8381,44.5001 79.5,45C 80.3333,45.8333 81.1667,46.6667 82,47.5C 82.4999,59.1619 82.6665,70.8286 82.5,82.5C 70.8286,82.6665 59.1619,82.4999 47.5,82C 46.6667,81.1667 45.8333,80.3333 45,79.5C 44.5001,67.8381 44.3335,56.1714 44.5,44.5 Z"/></g>
</svg>
