<?xml version="1.0" encoding="UTF-8"?>
<!DOCTYPE svg PUBLIC "-//W3C//DTD SVG 1.1//EN" "http://www.w3.org/Graphics/SVG/1.1/DTD/svg11.dtd">
<svg xmlns="http://www.w3.org/2000/svg" version="1.1" width="128px" height="128px" style="shape-rendering:geometricPrecision; text-rendering:geometricPrecision; image-rendering:optimizeQuality; fill-rule:evenodd; clip-rule:evenodd" xmlns:xlink="http://www.w3.org/1999/xlink">
<g><path style="opacity:0.899" fill="#fefffe" d="M 61.5,3.5 C 62.8734,3.34332 64.2068,3.50999 65.5,4C 80.7563,14.6972 97.7563,20.5305 116.5,21.5C 119.317,50.9042 112.15,77.5708 95,101.5C 86.3353,111.419 75.8353,118.753 63.5,123.5C 41.8023,114.636 26.6356,99.3022 18,77.5C 11.0893,59.3775 8.58925,40.7108 10.5,21.5C 26.1239,20.6807 40.7905,16.514 54.5,9C 57.02,7.30288 59.3533,5.46955 61.5,3.5 Z M 62.5,17.5 C 75.759,25.3639 90.0924,30.0306 105.5,31.5C 105.61,49.3945 101.776,66.3945 94,82.5C 87.1624,95.506 76.9958,104.839 63.5,110.5C 43.9029,101.059 31.4029,85.7256 26,64.5C 22.943,53.7109 21.443,42.7109 21.5,31.5C 36.4885,30.3935 50.1552,25.7269 62.5,17.5 Z"/></g>
<g><path style="opacity:0.963" fill="#fefffe" d="M 62.5,25.5 C 72.491,31.9981 83.491,35.8314 95.5,37C 96.8392,53.4862 93.3392,68.9862 85,83.5C 79.4916,91.5107 72.3249,97.5107 63.5,101.5C 47.5857,94.0787 37.7524,81.7454 34,64.5C 31.715,55.3656 30.8817,46.199 31.5,37C 43.197,36.47 53.5304,32.6367 62.5,25.5 Z"/></g>
</svg>
