<?xml version="1.0" encoding="UTF-8"?>
<!DOCTYPE svg PUBLIC "-//W3C//DTD SVG 1.1//EN" "http://www.w3.org/Graphics/SVG/1.1/DTD/svg11.dtd">
<svg xmlns="http://www.w3.org/2000/svg" version="1.1" width="128px" height="128px" style="shape-rendering:geometricPrecision; text-rendering:geometricPrecision; image-rendering:optimizeQuality; fill-rule:evenodd; clip-rule:evenodd" xmlns:xlink="http://www.w3.org/1999/xlink">
<g><path style="opacity:0.891" fill="#fefffe" d="M 27.5,35.5 C 30.8499,35.335 34.1832,35.5017 37.5,36C 24.5931,47.3974 21.0931,61.2308 27,77.5C 29.3535,82.8581 32.8535,87.3581 37.5,91C 22.8307,91.91 12.9974,85.41 8,71.5C 4.87534,54.0715 11.3753,42.0715 27.5,35.5 Z"/></g>
<g><path style="opacity:0.924" fill="#fefffe" d="M 51.5,35.5 C 56.8333,35.5 62.1667,35.5 67.5,35.5C 67.6495,36.552 67.4828,37.552 67,38.5C 56.2239,49.7414 53.5573,62.7414 59,77.5C 60.9327,81.698 63.5994,85.3647 67,88.5C 67.4828,89.448 67.6495,90.448 67.5,91.5C 41.688,93.1884 29.8547,81.1884 32,55.5C 35.3514,45.6498 41.8514,38.9831 51.5,35.5 Z"/></g>
<g><path style="opacity:0.961" fill="#fefffe" d="M 83.5,35.5 C 109.312,33.8116 121.145,45.8116 119,71.5C 112.671,87.7521 100.838,94.2521 83.5,91C 67.2479,84.6711 60.7479,72.8378 64,55.5C 67.3514,45.6498 73.8514,38.9831 83.5,35.5 Z"/></g>
</svg>
